<svg width="31" height="31" viewBox="0 0 31 31" fill="none" xmlns="http://www.w3.org/2000/svg">
<g clip-path="url(#clip0_5081_8281)">
<path d="M4.56862 -5.11067e-05C2.79646 -5.11067e-05 2.14417 0.653532 2.14417 2.42699V23.8183C2.14328 24.005 2.15191 24.1917 2.17 24.3776C2.21004 24.7651 2.21779 25.1397 2.57817 25.5659C2.61304 25.6085 2.97987 25.8824 2.97987 25.8824C3.1775 25.9792 3.31312 26.0503 3.53529 26.1407L14.3013 30.6499C14.8606 30.9069 15.0944 31.0064 15.5 30.9987H15.5026C15.9082 31.0064 16.142 30.9069 16.7012 30.6499L27.4673 26.1394C27.6895 26.049 27.8251 25.9792 28.0227 25.8811C28.0227 25.8811 28.3895 25.6085 28.4244 25.5672C28.7861 25.141 28.7925 24.7651 28.8326 24.3789C28.8507 24.1926 28.8593 24.0055 28.8584 23.8183V2.42699C28.8584 0.653532 28.2048 -0.00134277 26.4327 -0.00134277L4.56862 -5.11067e-05ZM21.833 4.01703H22.7114C24.1813 4.01703 24.8917 4.73132 24.8917 6.2077V8.63603H23.117V6.31103C23.117 5.83441 22.8974 5.61353 22.4414 5.61353H22.1379C21.6638 5.61353 21.4442 5.83312 21.4442 6.30974V13.8143C21.4442 14.2909 21.6638 14.5118 22.1379 14.5118H22.4763C22.9322 14.5118 23.1518 14.2909 23.1518 13.8143V11.1328H24.9253V13.9009C24.9253 15.3785 24.1994 16.1096 22.7295 16.1096H21.833C20.3631 16.1096 19.6372 15.3785 19.6372 13.9009V6.22578C19.6372 4.74812 20.3631 4.01832 21.833 4.01832V4.01703ZM6.09279 4.12037H10.115V5.76595H7.90112V9.12816H10.0298V10.775H7.90112V14.3581H10.1486V16.005H6.09279V4.12037ZM11.0218 4.12037H13.8609C15.3308 4.12037 16.0567 4.84887 16.0567 6.32653V9.48466C16.0567 10.9623 15.3308 11.6934 13.8609 11.6934H12.8288V16.005H11.0205L11.0218 4.12037ZM16.873 4.12037H18.6814V16.005H16.873V4.12037ZM12.8301 5.71557V10.0969H13.5728C14.0301 10.0969 14.2484 9.87603 14.2484 9.39941V6.41307C14.2484 5.93774 14.0288 5.71557 13.5728 5.71557H12.8301ZM7.99929 18.8221C8.25999 18.8231 8.51845 18.8704 8.76266 18.9616C8.99351 19.0545 9.20737 19.185 9.39558 19.3478L8.81175 20.0531C8.69219 19.9501 8.55815 19.8652 8.41391 19.8012C8.26527 19.7402 8.10569 19.7103 7.94504 19.7134C7.82026 19.7123 7.69678 19.7388 7.58337 19.7909C7.47392 19.8412 7.37556 19.9127 7.29404 20.0014C7.2103 20.0932 7.14418 20.1996 7.099 20.3153C7.05038 20.4382 7.02582 20.5693 7.02666 20.7015V20.7118C7.02568 20.8486 7.05021 20.9844 7.099 21.1122C7.14368 21.2308 7.21277 21.3386 7.30179 21.4287C7.38972 21.5171 7.49417 21.5873 7.60921 21.6354C7.73332 21.6863 7.86642 21.7118 8.00058 21.7103C8.2028 21.7184 8.40287 21.6663 8.57537 21.5604V21.1226H7.86754V20.3928H9.51958V22.0138C9.31525 22.1794 9.08706 22.3131 8.84275 22.4104C8.56187 22.5204 8.26216 22.5744 7.96054 22.5692C7.69498 22.5723 7.43121 22.5254 7.18296 22.431C6.95391 22.3432 6.74419 22.2116 6.56554 22.0435C6.38998 21.8777 6.2502 21.6777 6.15479 21.4558C6.05391 21.2191 6.00333 20.964 6.00625 20.7067V20.6963C6.00385 20.4435 6.05354 20.1929 6.15221 19.9601C6.24694 19.7379 6.38379 19.5361 6.55521 19.3659C6.7304 19.1931 6.93863 19.0573 7.16746 18.9668C7.41321 18.8694 7.67554 18.8207 7.93987 18.8234C7.95925 18.8232 7.97862 18.8232 7.998 18.8234L7.99929 18.8221ZM23.4515 18.8325C23.7197 18.8318 23.9864 18.8727 24.242 18.9539C24.4801 19.0327 24.7019 19.1539 24.8969 19.3117L24.3983 20.0169C24.2437 19.9053 24.0741 19.8161 23.8945 19.7521C23.7337 19.694 23.5643 19.6635 23.3934 19.6617C23.299 19.6552 23.2049 19.6787 23.1247 19.7289C23.0973 19.7467 23.0747 19.771 23.059 19.7996C23.0432 19.8282 23.0347 19.8602 23.0343 19.8929V19.9032C23.0334 19.9414 23.0433 19.9789 23.0627 20.0117C23.0875 20.0481 23.1214 20.0775 23.1609 20.097C23.2215 20.1288 23.2851 20.1548 23.3507 20.1745C23.4308 20.2003 23.5316 20.2262 23.6556 20.2533C23.844 20.2935 24.0295 20.3462 24.211 20.4109C24.362 20.4634 24.5047 20.5373 24.6347 20.6305C24.747 20.7112 24.8387 20.8174 24.902 20.9404C24.9665 21.0763 24.9979 21.2254 24.9937 21.3757V21.3861C24.9969 21.5564 24.9611 21.7251 24.8891 21.8795C24.8195 22.0229 24.7184 22.1487 24.5933 22.2476C24.4578 22.3538 24.3029 22.4328 24.1374 22.4801C23.9442 22.535 23.744 22.5615 23.5432 22.5589C23.2313 22.5606 22.9213 22.5099 22.6261 22.4091C22.3433 22.3132 22.0828 22.1611 21.8602 21.9622L22.4156 21.2982C22.7734 21.5863 23.1622 21.7309 23.5781 21.7309C23.6836 21.7371 23.7889 21.7148 23.8829 21.6664C23.9158 21.6485 23.943 21.622 23.9617 21.5896C23.9804 21.5572 23.9898 21.5203 23.9888 21.483V21.4726C23.9893 21.4377 23.9804 21.4034 23.963 21.3732C23.939 21.3375 23.9066 21.3082 23.8687 21.2879C23.8101 21.2549 23.7482 21.2281 23.684 21.2078C23.5851 21.1762 23.4846 21.1495 23.383 21.1277C23.2032 21.0867 23.0252 21.038 22.8496 20.9818C22.6977 20.9342 22.5537 20.8645 22.422 20.7751C22.3035 20.694 22.2054 20.5866 22.1353 20.4612C22.0607 20.3179 22.0242 20.1578 22.0294 19.9962V19.9859C22.0277 19.8263 22.0603 19.6681 22.125 19.5222C22.1883 19.3811 22.2828 19.2561 22.4014 19.1567C22.5309 19.0494 22.6801 18.9682 22.8405 18.9177C23.0276 18.8586 23.223 18.8298 23.4192 18.8325C23.43 18.8324 23.4407 18.8324 23.4515 18.8325ZM11.3641 18.8647H12.3225L13.8505 22.4943H12.7849L12.5227 21.8498H11.138L10.8823 22.493H9.83604L11.3641 18.8647ZM14.2019 18.8906H15.2533L16.1097 20.2856L16.966 18.8906H18.0175V22.4943H17.028V20.4251L16.1097 21.8343H16.089L15.1758 20.4354V22.493H14.2019V18.8906ZM18.6827 18.8906H21.5695V19.7405H19.6669V20.2856H21.39V21.0735H19.6669V21.6444H21.5954V22.4943H18.6827V18.8906ZM11.8368 20.0492L11.43 21.0735H12.236L11.8368 20.0492ZM10.3579 26.7529H20.7093L15.4264 28.4941L10.3579 26.7529Z" fill="black"/>
</g>
<defs>
<clipPath id="clip0_5081_8281">
<rect width="31" height="31" fill="white"/>
</clipPath>
</defs>
</svg>
