<svg width="43" height="32" viewBox="0 0 43 32" fill="none" xmlns="http://www.w3.org/2000/svg">
<path fill-rule="evenodd" clip-rule="evenodd" d="M40.3125 16.3265C40.3125 15.9693 40.171 15.6267 39.9189 15.3741C39.6669 15.1215 39.3252 14.9796 38.9688 14.9796H7.27508L15.7326 6.50467C15.8576 6.37943 15.9567 6.23076 16.0243 6.06714C16.0919 5.90351 16.1267 5.72814 16.1267 5.55103C16.1267 5.37393 16.0919 5.19856 16.0243 5.03493C15.9567 4.87131 15.8576 4.72263 15.7326 4.5974C15.6077 4.47217 15.4594 4.37283 15.2962 4.30505C15.1329 4.23728 14.958 4.20239 14.7813 4.20239C14.6046 4.20239 14.4296 4.23728 14.2664 4.30505C14.1032 4.37283 13.9548 4.47217 13.8299 4.5974L3.0799 15.3729C2.95476 15.498 2.85547 15.6467 2.78773 15.8103C2.71999 15.9739 2.68512 16.1494 2.68512 16.3265C2.68512 16.5037 2.71999 16.6791 2.78773 16.8428C2.85547 17.0064 2.95476 17.1551 3.0799 17.2802L13.8299 28.0557C13.9548 28.1809 14.1032 28.2803 14.2664 28.348C14.4296 28.4158 14.6046 28.4507 14.7813 28.4507C14.958 28.4507 15.1329 28.4158 15.2962 28.348C15.4594 28.2803 15.6077 28.1809 15.7326 28.0557C15.8576 27.9305 15.9567 27.7818 16.0243 27.6182C16.0919 27.4545 16.1267 27.2792 16.1267 27.1021C16.1267 26.9249 16.0919 26.7496 16.0243 26.586C15.9567 26.4223 15.8576 26.2737 15.7326 26.1484L7.27508 17.6735H38.9688C39.3252 17.6735 39.6669 17.5316 39.9189 17.279C40.171 17.0264 40.3125 16.6838 40.3125 16.3265Z" fill="black"/>
</svg>
