<svg width="35" height="27" viewBox="0 0 35 27" fill="none" xmlns="http://www.w3.org/2000/svg">
<g clip-path="url(#clip0_5146_7153)">
<path d="M29.6483 2.25185C27.353 1.18606 24.9247 0.42877 22.4277 0C22.1166 0.558045 21.7532 1.30862 21.5026 1.90574C18.8104 1.50399 16.1429 1.50399 13.5001 1.90574C13.2496 1.30875 12.878 0.558045 12.5641 0C10.0646 0.428968 7.63425 1.18819 5.33783 2.25742C0.768145 9.1104 -0.470664 15.793 0.148672 22.381C3.17959 24.6271 6.11686 25.9916 9.00463 26.8845C9.72231 25.9051 10.3567 24.8682 10.9013 23.7844C9.86449 23.3927 8.86494 22.9099 7.91457 22.3419C8.16467 22.1579 8.40888 21.9662 8.64684 21.767C14.4057 24.4402 20.6631 24.4402 26.3533 21.767C26.5923 21.9649 26.8364 22.1566 27.0854 22.3419C26.1335 22.9114 25.1321 23.3952 24.0932 23.7873C24.6409 24.8754 25.2742 25.9134 25.9899 26.8873C28.8804 25.9945 31.8204 24.63 34.8513 22.381C35.5781 14.7439 33.6099 8.12252 29.6483 2.25172V2.25185ZM11.686 18.3295C9.95715 18.3295 8.53938 16.7278 8.53938 14.7774C8.53938 12.827 9.92694 11.2226 11.686 11.2226C13.4451 11.2226 14.8628 12.8242 14.8325 14.7774C14.8353 16.7278 13.4451 18.3295 11.686 18.3295ZM23.314 18.3295C21.5852 18.3295 20.1676 16.7278 20.1676 14.7774C20.1676 12.827 21.555 11.2226 23.314 11.2226C25.0732 11.2226 26.4908 12.8242 26.4606 14.7774C26.4606 16.7278 25.0732 18.3295 23.314 18.3295V18.3295Z" fill="#5865F2"/>
</g>
<defs>
<clipPath id="clip0_5146_7153">
<rect width="35" height="27" fill="white"/>
</clipPath>
</defs>
</svg>
